<svg xmlns="http://www.w3.org/2000/svg" width="32" height="17.778" viewBox="0 0 32 17.778">
  <g id="increase" transform="translate(0 0)">
    <path id="increase-2" data-name="increase" d="M94.229,298.673H88.9a1.778,1.778,0,0,0,0,3.556H89.7l-8.038,7.465-5.924-4.442a1.778,1.778,0,0,0-2.255.1l-8.889,8a1.778,1.778,0,0,0,2.379,2.642l7.8-7.022,5.943,4.456a1.776,1.776,0,0,0,2.276-.119l9.457-8.781v1.256a1.778,1.778,0,0,0,3.556,0v-5.333A1.777,1.777,0,0,0,94.229,298.673Z" transform="translate(-64.007 -298.673)" fill="#2ec114"/>
  </g>
</svg>
