<svg id="decrease" xmlns="http://www.w3.org/2000/svg" width="37.5" height="20.833" viewBox="0 0 37.5 20.833">
  <path id="decrease-2" data-name="decrease" d="M99.423,319.506h-6.25a2.083,2.083,0,1,1,0-4.167h.944l-9.42-8.747L77.755,311.8a2.083,2.083,0,0,1-2.643-.118L64.7,302.3a2.083,2.083,0,0,1,2.787-3.1l9.143,8.229,6.964-5.222a2.082,2.082,0,0,1,2.667.139L97.34,312.644v-1.472a2.083,2.083,0,0,1,4.167,0v6.25A2.083,2.083,0,0,1,99.423,319.506Z" transform="translate(-64.007 -298.673)" fill="#f35162"/>
</svg>
